<?xml version="1.0" encoding="iso-8859-1"?>
<!-- Generator: Adobe Illustrator 19.0.0, SVG Export Plug-In . SVG Version: 6.00 Build 0)  -->
<svg version="1.1" id="Layer_1" xmlns="http://www.w3.org/2000/svg" xmlns:xlink="http://www.w3.org/1999/xlink" x="0px" y="0px"
	 viewBox="0 0 477.567 477.567" style="enable-background:new 0 0 477.567 477.567;" xml:space="preserve">
<g>
	<g>
		<g>
			<path d="M380.763,229.071c-0.236-16.72-6.655-31.964-17.054-43.573c2.771-8.489,4.189-17.343,4.189-26.394
				c0-46.93-38.176-85.11-85.101-85.11c-6.833,0-13.636,0.813-20.218,2.417c-4.024,0.98-6.492,5.038-5.512,9.063
				c0.981,4.024,5.043,6.491,9.063,5.511c5.422-1.321,11.029-1.991,16.667-1.991c38.653,0,70.101,31.451,70.101,70.11
				c0,5.254-0.585,10.424-1.719,15.464c-10.648-7.172-23.461-11.365-37.237-11.365c-8.241,0-16.416,1.536-24.063,4.488
				c-5.886-17.846-16.906-33.862-31.646-45.778c-17.405-14.072-39.34-21.822-61.764-21.822c-52.788,0-95.992,41.821-98.224,94.069
				c-16.799,4.977-31.924,15.035-43.06,28.741c-12.591,15.497-19.524,35.046-19.524,55.048c0,48.173,39.191,87.365,87.364,87.365
				h227.865c39.365,0,71.392-32.026,71.392-71.392C422.283,266.045,405.805,240.636,380.763,229.071z M350.891,350.314H123.026
				c-39.901,0-72.364-32.463-72.364-72.365c0-16.568,5.741-32.758,16.166-45.589c10.281-12.654,24.653-21.553,40.469-25.057
				c3.48-0.771,5.937-3.884,5.877-7.448l-0.004-0.248c-0.008-0.4-0.015-0.8-0.015-1.203c0-45.939,37.375-83.314,83.314-83.314
				c19.278,0,37.375,6.393,52.334,18.486c14.536,11.752,24.806,28.201,28.914,46.315c0.523,2.307,2.104,4.231,4.265,5.193
				c2.163,0.962,4.648,0.848,6.713-0.308c7.686-4.302,16.416-6.576,25.247-6.576c28.578,0,51.828,23.25,51.828,51.828
				c0,1.028-0.042,2.134-0.132,3.481c-0.221,3.312,1.762,6.375,4.873,7.531c21.994,8.165,36.771,29.416,36.771,52.88
				C407.283,325.017,381.985,350.314,350.891,350.314z"/>
			<path d="M100.12,372.141c-4.143,0-7.5,3.358-7.5,7.5v24.747c0,4.142,3.357,7.5,7.5,7.5s7.5-3.358,7.5-7.5v-24.747
				C107.62,375.499,104.263,372.141,100.12,372.141z"/>
			<path d="M100.12,420.286c-4.143,0-7.5,3.358-7.5,7.5v42.281c0,4.142,3.357,7.5,7.5,7.5s7.5-3.358,7.5-7.5v-42.281
				C107.62,423.644,104.263,420.286,100.12,420.286z"/>
			<path d="M132.331,372.141c-4.143,0-7.5,3.358-7.5,7.5v90.426c0,4.142,3.357,7.5,7.5,7.5s7.5-3.358,7.5-7.5v-90.426
				C139.831,375.499,136.474,372.141,132.331,372.141z"/>
			<path d="M164.55,372.141c-4.143,0-7.5,3.358-7.5,7.5v48.807c0,4.142,3.357,7.5,7.5,7.5s7.5-3.358,7.5-7.5v-48.807
				C172.05,375.499,168.693,372.141,164.55,372.141z"/>
			<path d="M164.55,443.526c-4.143,0-7.5,3.358-7.5,7.5v19.041c0,4.142,3.357,7.5,7.5,7.5s7.5-3.358,7.5-7.5v-19.041
				C172.05,446.884,168.693,443.526,164.55,443.526z"/>
			<path d="M196.761,372.141c-4.143,0-7.5,3.358-7.5,7.5v90.426c0,4.142,3.357,7.5,7.5,7.5s7.5-3.358,7.5-7.5v-90.426
				C204.261,375.499,200.904,372.141,196.761,372.141z"/>
			<path d="M261.184,450.224c-4.143,0-7.5,3.358-7.5,7.5v12.343c0,4.142,3.357,7.5,7.5,7.5s7.5-3.358,7.5-7.5v-12.343
				C268.684,453.582,265.326,450.224,261.184,450.224z"/>
			<path d="M261.184,372.141c-4.143,0-7.5,3.358-7.5,7.5v54.883c0,4.142,3.357,7.5,7.5,7.5s7.5-3.358,7.5-7.5v-54.883
				C268.684,375.499,265.326,372.141,261.184,372.141z"/>
			<path d="M228.972,372.141c-4.143,0-7.5,3.358-7.5,7.5v10.483c0,4.142,3.357,7.5,7.5,7.5s7.5-3.358,7.5-7.5v-10.483
				C236.472,375.499,233.115,372.141,228.972,372.141z"/>
			<path d="M228.972,408.494c-4.143,0-7.5,3.358-7.5,7.5v54.073c0,4.142,3.357,7.5,7.5,7.5s7.5-3.358,7.5-7.5v-54.073
				C236.472,411.852,233.115,408.494,228.972,408.494z"/>
			<path d="M293.395,372.141c-4.143,0-7.5,3.358-7.5,7.5v41.623c0,4.142,3.357,7.5,7.5,7.5s7.5-3.358,7.5-7.5v-41.623
				C300.895,375.499,297.536,372.141,293.395,372.141z"/>
			<path d="M293.395,436.424c-4.143,0-7.5,3.358-7.5,7.5v26.143c0,4.142,3.357,7.5,7.5,7.5s7.5-3.358,7.5-7.5v-26.143
				C300.895,439.782,297.536,436.424,293.395,436.424z"/>
			<path d="M325.614,372.141c-4.143,0-7.5,3.358-7.5,7.5v13.93c0,4.142,3.357,7.5,7.5,7.5s7.5-3.358,7.5-7.5v-13.93
				C333.114,375.499,329.757,372.141,325.614,372.141z"/>
			<path d="M325.614,410.95c-4.143,0-7.5,3.358-7.5,7.5v51.616c0,4.142,3.357,7.5,7.5,7.5s7.5-3.358,7.5-7.5V418.45
				C333.114,414.308,329.757,410.95,325.614,410.95z"/>
			<path d="M357.826,372.141c-4.143,0-7.5,3.358-7.5,7.5v90.426c0,4.142,3.357,7.5,7.5,7.5s7.5-3.358,7.5-7.5v-90.426
				C365.326,375.499,361.969,372.141,357.826,372.141z"/>
			<path d="M237.47,99.5c-0.091-0.061-0.159-0.105,0.027,0.022c0.184,0.121,0.118,0.076,0.029,0.016
				c2.764,1.802,6.489,1.602,9.007-0.554c2.444-2.093,3.268-5.597,2.054-8.571c-1.23-3.014-4.428-4.919-7.663-4.593
				c-3.006,0.303-5.585,2.433-6.451,5.323C233.536,94.27,234.799,97.661,237.47,99.5z"/>
			<path d="M282.802,58.599c4.143,0,7.5-3.358,7.5-7.5V7.5c0-4.142-3.357-7.5-7.5-7.5s-7.5,3.358-7.5,7.5v43.599
				C275.302,55.241,278.659,58.599,282.802,58.599z"/>
			<path d="M359.172,90.233c1.919,0,3.839-0.732,5.304-2.197l30.83-30.83c2.929-2.929,2.929-7.678,0-10.606
				c-2.929-2.929-7.677-2.929-10.607,0l-30.83,30.83c-2.929,2.929-2.929,7.678,0,10.606
				C355.333,89.501,357.253,90.233,359.172,90.233z"/>
			<path d="M434.406,151.603h-43.6c-4.143,0-7.5,3.358-7.5,7.5c0,4.142,3.357,7.5,7.5,7.5h43.6c4.143,0,7.5-3.358,7.5-7.5
				C441.906,154.961,438.549,151.603,434.406,151.603z"/>
			<path d="M201.128,88.036c1.465,1.465,3.384,2.197,5.304,2.197c1.919,0,3.839-0.732,5.304-2.197c2.929-2.929,2.929-7.678,0-10.606
				l-30.83-30.83c-2.929-2.929-7.677-2.929-10.607,0c-2.929,2.929-2.929,7.678,0,10.606L201.128,88.036z"/>
		</g>
	</g>
</g>
<g>
</g>
<g>
</g>
<g>
</g>
<g>
</g>
<g>
</g>
<g>
</g>
<g>
</g>
<g>
</g>
<g>
</g>
<g>
</g>
<g>
</g>
<g>
</g>
<g>
</g>
<g>
</g>
<g>
</g>
</svg>
